<?xml version="1.0" encoding="UTF-8"?>
<svg version="1.1" xmlns="http://www.w3.org/2000/svg" width="256" height="256">
<path d="M0 0 C0.76659345 -0.00367669 1.53318689 -0.00735338 2.32301044 -0.01114148 C4.89991734 -0.02218221 7.47678392 -0.02602288 10.05371094 -0.02983093 C11.89835234 -0.03609548 13.74299247 -0.04274227 15.58763123 -0.04974365 C21.65444051 -0.07079406 27.72125007 -0.0811495 33.78808594 -0.09111023 C35.87765516 -0.09515794 37.96722426 -0.09927487 40.05679321 -0.10346031 C49.87748757 -0.12251706 59.69817441 -0.13674498 69.51888371 -0.14507228 C80.84591349 -0.15483571 92.17274739 -0.18112987 103.49970818 -0.22157317 C112.25910543 -0.25177235 121.01844668 -0.26654492 129.77789497 -0.26985329 C135.00692558 -0.27220017 140.23574704 -0.28111299 145.46472168 -0.30631447 C150.38955227 -0.32966553 155.31403708 -0.33380016 160.23890877 -0.32355309 C162.04036677 -0.32305926 163.8418422 -0.32933415 165.6432476 -0.34310913 C181.32360986 -0.45624217 192.12117853 1.9856951 203.69824219 13.24873352 C211.65792443 21.66963099 215.68824411 30.14957002 215.68525696 41.69137573 C215.68893365 42.45474005 215.69261033 43.21810437 215.69639844 44.00460094 C215.70741837 46.56458229 215.71127628 49.12452303 215.71508789 51.68452454 C215.72135393 53.51946135 215.72800085 55.35439689 215.73500061 57.18933105 C215.7560306 63.21823749 215.76640352 69.24714415 215.77636719 75.27607727 C215.78041545 77.35357616 215.78453239 79.43107491 215.78871727 81.50857353 C215.80776835 91.27159937 215.82199831 101.03461765 215.83032924 110.7976585 C215.84009505 122.05562813 215.86639785 133.31340079 215.90683013 144.57130104 C215.93702922 153.27976348 215.9518018 161.98816958 215.95511025 170.69668335 C215.95745683 175.89440047 215.96636596 181.09190715 215.99157143 186.28956795 C216.01492284 191.18404371 216.01905699 196.07817155 216.00881004 200.97268867 C216.00831625 202.7628597 216.01459012 204.55304826 216.02836609 206.34316635 C216.14194372 221.98534877 213.66951386 232.76114938 202.43652344 244.30732727 C194.01562596 252.26700951 185.53568694 256.29732919 173.99388123 256.29434204 C172.84883475 256.29985707 172.84883475 256.29985707 171.68065602 256.30548352 C169.12067466 256.31650345 166.56073393 256.32036136 164.00073242 256.32417297 C162.16579561 256.33043901 160.33086006 256.33708594 158.4959259 256.34408569 C152.46701947 256.36511568 146.43811281 256.37548861 140.40917969 256.38545227 C138.3316808 256.38950053 136.25418204 256.39361748 134.17668343 256.39780235 C124.41365759 256.41685343 114.6506393 256.4310834 104.88759845 256.43941432 C93.62962883 256.44918013 82.37185617 256.47548293 71.11395591 256.51591522 C62.40549348 256.5461143 53.69708738 256.56088689 44.98857361 256.56419533 C39.79085649 256.56654191 34.59334981 256.57545104 29.39568901 256.60065651 C24.50121325 256.62400792 19.6070854 256.62814207 14.71256828 256.61789513 C12.92239726 256.61740134 11.13220869 256.6236752 9.34209061 256.63745117 C-6.30009182 256.75102881 -17.07589242 254.27859895 -28.62207031 243.04560852 C-36.58175255 234.62471105 -40.61207223 226.14477202 -40.60908508 214.60296631 C-40.61276177 213.83960199 -40.61643846 213.07623767 -40.62022656 212.2897411 C-40.6312465 209.72975975 -40.6351044 207.16981901 -40.63891602 204.6098175 C-40.64518205 202.77488069 -40.65182898 200.93994515 -40.65882874 199.10501099 C-40.67985872 193.07610455 -40.69023165 187.0471979 -40.70019531 181.01826477 C-40.70424357 178.94076588 -40.70836052 176.86326713 -40.71254539 174.78576851 C-40.73159647 165.02274267 -40.74582644 155.25972439 -40.75415736 145.49668354 C-40.76392317 134.23871391 -40.79022598 122.98094125 -40.83065826 111.723041 C-40.86085734 103.01457856 -40.87562993 94.30617246 -40.87893838 85.59765869 C-40.88128495 80.39994158 -40.89019409 75.20243489 -40.91539955 70.00477409 C-40.93875096 65.11029833 -40.94288512 60.21617049 -40.93263817 55.32165337 C-40.93214438 53.53148234 -40.93841824 51.74129378 -40.95219421 49.95117569 C-41.06577185 34.30899327 -38.59334199 23.53319266 -27.36035156 11.98701477 C-19.42355222 4.48491645 -10.9764723 -0.00281396 0 0 Z " fill="#1BB62B" transform="translate(40.4619140625,-0.1471710205078125)"/>
<path d="M0 0 C8.25 0 16.5 0 25 0 C25.06058594 2.05734375 25.12117188 4.1146875 25.18359375 6.234375 C25.72494452 24.49218955 26.32430614 42.74659387 27 61 C32.98620434 56.15551118 38.13733394 50.68710147 43.26742554 44.97377014 C47.11713796 40.68731546 51.06468073 36.49402775 55.01761436 32.30290318 C57.99498549 29.13793362 60.93359933 25.94999271 63.80322266 22.68676758 C84.26029213 -0.49566994 84.26029213 -0.49566994 98.37207031 -1.65673828 C106.63868299 -2.06301038 114.83815161 -1.2900721 123 0 C121.53289332 3.40819709 119.6487453 5.56541869 116.9934082 8.13842773 C116.16948074 8.94283798 115.34555328 9.74724823 114.49665833 10.57603455 C113.16219917 11.86677635 113.16219917 11.86677635 111.80078125 13.18359375 C109.93366765 15.01568805 108.06714902 16.84838886 106.20117188 18.68164062 C103.25233818 21.57082118 100.29773863 24.45383039 97.33178711 27.32543945 C94.47220298 30.09541028 91.63653499 32.88922661 88.80078125 35.68359375 C87.90506912 36.54206406 87.00935699 37.40053436 86.08650208 38.28501892 C85.2720311 39.09258133 84.45756012 39.90014374 83.6184082 40.73217773 C82.89385941 41.43737045 82.16931061 42.14256317 81.42280579 42.86912537 C79.72882643 44.93419658 79.72882643 44.93419658 80.18685913 47.59144592 C81.20002318 50.59247625 82.58373402 53.13494444 84.17578125 55.875 C84.83400879 57.01582031 85.49223633 58.15664062 86.17041016 59.33203125 C86.5203302 59.93096191 86.87025024 60.52989258 87.23077393 61.14697266 C88.32081957 63.01425165 89.40063769 64.88711283 90.47802734 66.76171875 C93.87345209 72.66047274 97.30893335 78.53267356 100.80078125 84.375 C101.64805786 85.80972656 101.64805786 85.80972656 102.51245117 87.2734375 C103.56774069 89.05776351 104.63645419 90.83423479 105.7199707 92.6015625 C106.1862085 93.39304687 106.65244629 94.18453125 107.1328125 95 C107.54418457 95.680625 107.95555664 96.36125 108.37939453 97.0625 C109 99 109 99 108.2409668 101.08618164 C106.55417758 103.68754711 104.66084678 106.04626802 102.6875 108.4375 C101.92824219 109.36433594 101.16898437 110.29117188 100.38671875 111.24609375 C98.02633389 113.96961474 95.64895455 116.5551525 93 119 C92.34 119 91.68 119 91 119 C90.74009277 118.51982422 90.48018555 118.03964844 90.21240234 117.54492188 C83.95754783 106.01668548 77.5093823 94.6185185 70.86083984 83.3125 C67.49367097 77.58395255 64.19313389 71.82751462 61 66 C57.63664406 67.45745424 55.45465995 69.31117854 52.890625 71.9140625 C52.13652344 72.67460937 51.38242188 73.43515625 50.60546875 74.21875 C49.82816406 75.0128125 49.05085938 75.806875 48.25 76.625 C47.45722656 77.42679687 46.66445312 78.22859375 45.84765625 79.0546875 C43.89385507 81.03202846 41.94487897 83.01388909 40 85 C43.90736565 93.23202279 51.52068218 99.70818655 58 106 C56.4400345 110.67989651 52.62139261 112.48302213 48.6875 115.25 C47.91470703 115.8171875 47.14191406 116.384375 46.34570312 116.96875 C45.22131836 117.76539063 45.22131836 117.76539063 44.07421875 118.578125 C43.38932373 119.06700195 42.70442871 119.55587891 41.9987793 120.05957031 C40 121 40 121 37.86425781 120.74316406 C26.36840372 116.16047943 14.46307966 96.39936273 9.19921875 85.82421875 C-2.38640427 58.53951046 -0.34709806 29.01482648 0 0 Z " fill="#E8EFFA" transform="translate(64,63)"/>
<path d="M0 0 C1.41957717 60.57226568 1.41957717 60.57226568 -13 81 C-17.36367557 77.25822593 -19.86991041 72.48488499 -22.6875 67.5625 C-23.43483398 66.2930957 -23.43483398 66.2930957 -24.19726562 64.99804688 C-24.67228516 64.17498047 -25.14730469 63.35191406 -25.63671875 62.50390625 C-26.06686279 61.75955322 -26.49700684 61.0152002 -26.94018555 60.24829102 C-28.79500427 56.31347746 -29.27499735 53.12319123 -28.1875 48.9375 C-26.27887611 40.43308745 -25.78456691 31.66555415 -25 23 C-24.34 23 -23.68 23 -23 23 C-22.67 22.01 -22.34 21.02 -22 20 C-21.34 20 -20.68 20 -20 20 C-19.74476563 19.42024414 -19.48953125 18.84048828 -19.2265625 18.24316406 C-17.87415223 15.76984688 -16.36267476 14.10397891 -14.375 12.109375 C-13.31539062 11.04589844 -13.31539062 11.04589844 -12.234375 9.9609375 C-11.49703125 9.23132813 -10.7596875 8.50171875 -10 7.75 C-8.89398438 6.63238281 -8.89398438 6.63238281 -7.765625 5.4921875 C-7.05921875 4.78835937 -6.3528125 4.08453125 -5.625 3.359375 C-4.97789062 2.71452148 -4.33078125 2.06966797 -3.6640625 1.40527344 C-2 0 -2 0 0 0 Z " fill="#DCE7F8" transform="translate(192,73)"/>
<path d="M0 0 C4.88440546 2.06855188 6.61730559 5.49288534 9.3125 9.875 C9.77978516 10.59558594 10.24707031 11.31617188 10.72851562 12.05859375 C11.38303711 13.10853516 11.38303711 13.10853516 12.05078125 14.1796875 C12.44950439 14.81632324 12.84822754 15.45295898 13.2590332 16.10888672 C14.20715005 18.52869334 13.96618161 19.61180502 13 22 C11.14697861 23.93371283 9.32176385 25.68391678 7.3125 27.4375 C6.79494141 27.90220703 6.27738281 28.36691406 5.74414062 28.84570312 C4.69920231 29.77873024 3.64590505 30.70247991 2.58447266 31.61669922 C1.51430784 32.55099103 0.46711511 33.51216437 -0.55712891 34.49658203 C-2.80528633 36.58060885 -4.30768971 37.94871776 -7.42578125 38.1796875 C-11.22658086 36.43789466 -14.08443569 33.89408769 -17.1875 31.125 C-17.81591797 30.58230469 -18.44433594 30.03960937 -19.09179688 29.48046875 C-21.84805011 27.06911565 -23.94827498 25.07758753 -26 22 C-25.53215088 21.61779297 -25.06430176 21.23558594 -24.58227539 20.84179688 C-12.09247647 10.65293093 -12.09247647 10.65293093 0 0 Z " fill="#D4E0F9" transform="translate(135,168)"/>
<path d="M0 0 C13.53 0 27.06 0 41 0 C36.15789474 7.26315789 36.15789474 7.26315789 33 10 C32.34 10 31.68 10 31 10 C31 10.66 31 11.32 31 12 C30.34 12 29.68 12 29 12 C29 12.66 29 13.32 29 14 C28.34 14 27.68 14 27 14 C27 14.66 27 15.32 27 16 C25.28515625 17.69140625 25.28515625 17.69140625 23.0625 19.5625 C21.96615234 20.49255859 21.96615234 20.49255859 20.84765625 21.44140625 C20.23792969 21.95574219 19.62820312 22.47007813 19 23 C18.67 23.33 18.34 23.66 18 24 C16.65732587 24.08631874 15.31025678 24.10706473 13.96484375 24.09765625 C12.87224243 24.09390991 12.87224243 24.09390991 11.75756836 24.09008789 C10.8269458 24.08098389 9.89632324 24.07187988 8.9375 24.0625 C4.5134375 24.0315625 4.5134375 24.0315625 0 24 C0 16.08 0 8.16 0 0 Z " fill="#E3EAFC" transform="translate(98,64)"/>
</svg>
